<svg id="visual" viewBox="0 0 900 600" width="900" height="600" xmlns="http://www.w3.org/2000/svg" xmlns:xlink="http://www.w3.org/1999/xlink" version="1.1"><rect x="0" y="0" width="900" height="600" fill="#ffffff"></rect><path d="M717 600L673 600L673 565L694 565L694 529L753 529L753 494L733 494L733 459L701 459L701 424L700 424L700 388L679 388L679 353L710 353L710 318L726 318L726 282L749 282L749 247L680 247L680 212L697 212L697 176L759 176L759 141L705 141L705 106L716 106L716 71L669 71L669 35L690 35L690 0L900 0L900 35L900 35L900 71L900 71L900 106L900 106L900 141L900 141L900 176L900 176L900 212L900 212L900 247L900 247L900 282L900 282L900 318L900 318L900 353L900 353L900 388L900 388L900 424L900 424L900 459L900 459L900 494L900 494L900 529L900 529L900 565L900 565L900 600L900 600Z" fill="#252128"></path><path d="M766 600L810 600L810 565L767 565L767 529L743 529L743 494L755 494L755 459L813 459L813 424L743 424L743 388L796 388L796 353L802 353L802 318L786 318L786 282L769 282L769 247L738 247L738 212L781 212L781 176L795 176L795 141L735 141L735 106L789 106L789 71L753 71L753 35L764 35L764 0L900 0L900 35L900 35L900 71L900 71L900 106L900 106L900 141L900 141L900 176L900 176L900 212L900 212L900 247L900 247L900 282L900 282L900 318L900 318L900 353L900 353L900 388L900 388L900 424L900 424L900 459L900 459L900 494L900 494L900 529L900 529L900 565L900 565L900 600L900 600Z" fill="#1d1b1f"></path><path d="M870 600L807 600L807 565L863 565L863 529L804 529L804 494L811 494L811 459L837 459L837 424L874 424L874 388L819 388L819 353L810 353L810 318L849 318L849 282L804 282L804 247L814 247L814 212L853 212L853 176L805 176L805 141L847 141L847 106L849 106L849 71L854 71L854 35L849 35L849 0L900 0L900 35L900 35L900 71L900 71L900 106L900 106L900 141L900 141L900 176L900 176L900 212L900 212L900 247L900 247L900 282L900 282L900 318L900 318L900 353L900 353L900 388L900 388L900 424L900 424L900 459L900 459L900 494L900 494L900 529L900 529L900 565L900 565L900 600L900 600Z" fill="#161417"></path></svg>