<svg id="visual" viewBox="0 0 900 600" width="900" height="600" xmlns="http://www.w3.org/2000/svg" xmlns:xlink="http://www.w3.org/1999/xlink" version="1.1"><rect x="0" y="0" width="900" height="600" fill="#FFFFFF"></rect><path d="M663 600L691 595.5C719 591 775 582 774.5 572.8C774 563.7 717 554.3 714.7 545.2C712.3 536 764.7 527 788 518C811.3 509 805.7 500 796.2 491C786.7 482 773.3 473 755.7 463.8C738 454.7 716 445.3 699.7 436.2C683.3 427 672.7 418 684.5 409C696.3 400 730.7 391 740.8 382C751 373 737 364 723.7 354.8C710.3 345.7 697.7 336.3 688.5 327.2C679.3 318 673.7 309 698.8 300C724 291 780 282 807.7 272.8C835.3 263.7 834.7 254.3 838 245.2C841.3 236 848.7 227 837.5 218C826.3 209 796.7 200 779.2 191C761.7 182 756.3 173 741.5 163.8C726.7 154.7 702.3 145.3 701.8 136.2C701.3 127 724.7 118 739 109C753.3 100 758.7 91 770.5 82C782.3 73 800.7 64 793.5 54.8C786.3 45.7 753.7 36.3 754 27.2C754.3 18 787.7 9 804.3 4.5L821 0L900 0L900 4.5C900 9 900 18 900 27.2C900 36.3 900 45.7 900 54.8C900 64 900 73 900 82C900 91 900 100 900 109C900 118 900 127 900 136.2C900 145.3 900 154.7 900 163.8C900 173 900 182 900 191C900 200 900 209 900 218C900 227 900 236 900 245.2C900 254.3 900 263.7 900 272.8C900 282 900 291 900 300C900 309 900 318 900 327.2C900 336.3 900 345.7 900 354.8C900 364 900 373 900 382C900 391 900 400 900 409C900 418 900 427 900 436.2C900 445.3 900 454.7 900 463.8C900 473 900 482 900 491C900 500 900 509 900 518C900 527 900 536 900 545.2C900 554.3 900 563.7 900 572.8C900 582 900 591 900 595.5L900 600Z" fill="#6600FF" stroke-linecap="round" stroke-linejoin="miter"></path></svg>